# xmcd CD database file
#
# Track frame offsets:
#	150
#	22219
#	35181
#	52495
#	70611
#	87277
#	104947
#	129255
#	145179
#	158864
#	177738
#	194050
#	212266
#	230977
#	246216
#	265754
#
# Disc length: 3915 seconds
#
# Revision: 0
# Processed by: cddbd v1.5.2PL0 Copyright (c) Steve Scherf et al.
# Submitted via: CDex 1.74
#
DISCID=010f4910
DTITLE=Jamie Lee Bradford - Locally Owned and Operated
DYEAR=1998
DGENRE=Country
TTITLE0=Do You Wanna Fly
TTITLE1=Daddy Wants To Give You Love
TTITLE2=Annie's In Trouble
TTITLE3=Last Year's Cadillac
TTITLE4=Jesus Don't Care
TTITLE5=The One After The One
TTITLE6=Innocent Child
TTITLE7=Crybaby
TTITLE8=Cowboy(In The Summertime)
TTITLE9=B-Movie Queen
TTITLE10=Amelia
TTITLE11=Angels On My Feet
TTITLE12=Daddy Doesn't Live Here
TTITLE13=Kisses Goodbye
TTITLE14=Homeless Sometimes
TTITLE15=If You Could See
EXTD=YEAR: 1998
EXTT0=
EXTT1=
EXTT2=
EXTT3=
EXTT4=
EXTT5=
EXTT6=
EXTT7=
EXTT8=
EXTT9=
EXTT10=
EXTT11=
EXTT12=
EXTT13=
EXTT14=
EXTT15=
PLAYORDER=
